# xmcd CD database file
#
# Track frame offsets:
#	150
#	12902
#	24905
#	37768
#	49009
#	62000
#	73495
#	87550
#	99180
#	110927
#	120332
#	133350
#	144617
#	159321
#	173171
#	187612
#
# Disc length: 2592 seconds
#
# Revision: 1
# Processed by: cddbd v1.5.2PL0 Copyright (c) Steve Scherf et al.
# Submitted via: CDex 1.51
#
DISCID=d30a1e10
DTITLE=Four wheel drive - No doubt about it
DYEAR=2000
DGENRE=Bluegrass
TTITLE0=Lonesome without you
TTITLE1=No doubt about it
TTITLE2=Indian killed a woodcok
TTITLE3=Four wheel drive
TTITLE4=Wild and wicked world
TTITLE5=One tear
TTITLE6=Send me your address
TTITLE7=Anita's waltz
TTITLE8=Wreck f the old 97
TTITLE9=I'm lost and I'll never find the way
TTITLE10=Hot corn, cold corn
TTITLE11=Daley's reel
TTITLE12=Occasional blues
TTITLE13=How many men?
TTITLE14=Bad moon rising
TTITLE15=Yakety Axe
EXTD=YEAR: 2000
EXTT0=
EXTT1=
EXTT2=
EXTT3=
EXTT4=
EXTT5=
EXTT6=
EXTT7=
EXTT8=
EXTT9=
EXTT10=
EXTT11=
EXTT12=
EXTT13=
EXTT14=
EXTT15=
PLAYORDER=
